<?xml version="1.0" encoding="UTF-8" standalone="no"?>
<!-- Generator: Adobe Illustrator 16.0.0, SVG Export Plug-In . SVG Version: 6.00 Build 0)  -->

<svg
   xmlns:dc="http://purl.org/dc/elements/1.1/"
   xmlns:cc="http://creativecommons.org/ns#"
   xmlns:rdf="http://www.w3.org/1999/02/22-rdf-syntax-ns#"
   xmlns:svg="http://www.w3.org/2000/svg"
   xmlns="http://www.w3.org/2000/svg"
   xmlns:sodipodi="http://sodipodi.sourceforge.net/DTD/sodipodi-0.dtd"
   xmlns:inkscape="http://www.inkscape.org/namespaces/inkscape"
   version="1.1"
   id="Capa_1"
   x="0px"
   y="0px"
   width="512px"
   height="512px"
   viewBox="0 0 612.056 612.057"
   style="enable-background:new 0 0 612.056 612.057;"
   xml:space="preserve"
   sodipodi:docname="search.svg"
   inkscape:version="0.92.4 (5da689c313, 2019-01-14)"><metadata
   id="metadata44"><rdf:RDF><cc:Work
       rdf:about=""><dc:format>image/svg+xml</dc:format><dc:type
         rdf:resource="http://purl.org/dc/dcmitype/StillImage" /></cc:Work></rdf:RDF></metadata><defs
   id="defs42" /><sodipodi:namedview
   pagecolor="#ffffff"
   bordercolor="#666666"
   borderopacity="1"
   objecttolerance="10"
   gridtolerance="10"
   guidetolerance="10"
   inkscape:pageopacity="0"
   inkscape:pageshadow="2"
   inkscape:window-width="1920"
   inkscape:window-height="1017"
   id="namedview40"
   showgrid="false"
   inkscape:zoom="0.4609375"
   inkscape:cx="256"
   inkscape:cy="256"
   inkscape:window-x="1912"
   inkscape:window-y="-8"
   inkscape:window-maximized="1"
   inkscape:current-layer="Capa_1" />
<g
   id="g7"
   style="stroke:none;stroke-opacity:1;fill:#ffffff;fill-opacity:0.97235024;opacity:1">
	<g
   id="Search"
   style="stroke:none;stroke-opacity:1;fill:#ffffff;fill-opacity:0.97235024">
		<g
   id="g4"
   style="stroke:none;stroke-opacity:1;fill:#ffffff;fill-opacity:0.97235024">
			<path
   d="M595.2,513.908L493.775,412.482c26.707-41.727,42.685-91.041,42.685-144.263C536.459,120.085,416.375,0,268.24,0     C120.106,0,0.021,120.085,0.021,268.219c0,148.134,120.085,268.22,268.219,268.22c53.222,0,102.537-15.979,144.225-42.686     l101.426,101.463c22.454,22.453,58.854,22.453,81.271,0C617.654,572.725,617.654,536.361,595.2,513.908z M268.24,459.805     c-105.793,0-191.585-85.793-191.585-191.585c0-105.793,85.792-191.585,191.585-191.585s191.585,85.792,191.585,191.585     C459.826,374.012,374.034,459.805,268.24,459.805z"
   fill="#3498db"
   id="path2"
   style="stroke:none;stroke-opacity:1;fill:#ffffff;fill-opacity:0.97235024" />
		</g>
	</g>
</g>
<g
   id="g9">
</g>
<g
   id="g11">
</g>
<g
   id="g13">
</g>
<g
   id="g15">
</g>
<g
   id="g17">
</g>
<g
   id="g19">
</g>
<g
   id="g21">
</g>
<g
   id="g23">
</g>
<g
   id="g25">
</g>
<g
   id="g27">
</g>
<g
   id="g29">
</g>
<g
   id="g31">
</g>
<g
   id="g33">
</g>
<g
   id="g35">
</g>
<g
   id="g37">
</g>
</svg>